REM DIRINDEX 1\2,1\3,1\4,1\5
REM DIRNAME folder01,folder02,folder03,folder04,folder05
TITLE ""
FILE "1800_093.mp3" MP3
  TRACK 01 AUDIO
    TITLE "2:cjc044_2517"
    INDEX 01 00:00:00
  TRACK 02 AUDIO
    TITLE "0:"
    INDEX 01 00:01:11
  TRACK 03 AUDIO
    TITLE "3:cjc044_2518"
    INDEX 01 00:01:69
  TRACK 04 AUDIO
    TITLE "0:"
    INDEX 01 00:03:02
  TRACK 05 AUDIO
    TITLE "4:cjc044_2519"
    INDEX 01 00:03:64
  TRACK 06 AUDIO
    TITLE "0:"
    INDEX 01 00:05:05
  TRACK 07 AUDIO
    TITLE "5:cjc044_2520"
    INDEX 01 00:05:48
  TRACK 08 AUDIO
    TITLE "0:"
    INDEX 01 00:08:17
  TRACK 09 AUDIO
    TITLE "2:cjc044_2521"
    INDEX 01 00:10:04
  TRACK 10 AUDIO
    TITLE "0:"
    INDEX 01 00:11:23
  TRACK 11 AUDIO
    TITLE "3:cjc044_2522"
    INDEX 01 00:12:01
  TRACK 12 AUDIO
    TITLE "0:"
    INDEX 01 00:13:02
  TRACK 13 AUDIO
    TITLE "4:cjc044_2523"
    INDEX 01 00:13:67
  TRACK 14 AUDIO
    TITLE "0:"
    INDEX 01 00:15:11
  TRACK 15 AUDIO
    TITLE "5:cjc044_2524"
    INDEX 01 00:15:66
  TRACK 16 AUDIO
    TITLE "0:"
    INDEX 01 00:19:20
  TRACK 17 AUDIO
    TITLE "2:cjc044_2525"
    INDEX 01 00:21:06
  TRACK 18 AUDIO
    TITLE "0:"
    INDEX 01 00:22:23
  TRACK 19 AUDIO
    TITLE "3:cjc044_2526"
    INDEX 01 00:23:03
  TRACK 20 AUDIO
    TITLE "0:"
    INDEX 01 00:24:08
  TRACK 21 AUDIO
    TITLE "4:cjc044_2527"
    INDEX 01 00:24:67
  TRACK 22 AUDIO
    TITLE "0:"
    INDEX 01 00:26:09
  TRACK 23 AUDIO
    TITLE "5:cjc044_2528"
    INDEX 01 00:26:54
  TRACK 24 AUDIO
    TITLE "0:"
    INDEX 01 00:30:30
  TRACK 25 AUDIO
    TITLE "2:cjc044_2529"
    INDEX 01 00:32:13
  TRACK 26 AUDIO
    TITLE "0:"
    INDEX 01 00:33:32
  TRACK 27 AUDIO
    TITLE "3:cjc044_2530"
    INDEX 01 00:34:12
  TRACK 28 AUDIO
    TITLE "0:"
    INDEX 01 00:35:10
  TRACK 29 AUDIO
    TITLE "4:cjc044_2531"
    INDEX 01 00:35:66
  TRACK 30 AUDIO
    TITLE "0:"
    INDEX 01 00:37:12
  TRACK 31 AUDIO
    TITLE "5:cjc044_2532"
    INDEX 01 00:37:69
  TRACK 32 AUDIO
    TITLE "0:"
    INDEX 01 00:40:73
  TRACK 33 AUDIO
    TITLE "2:cjc044_2533"
    INDEX 01 00:42:53
  TRACK 34 AUDIO
    TITLE "0:"
    INDEX 01 00:44:07
  TRACK 35 AUDIO
    TITLE "3:cjc044_2534"
    INDEX 01 00:44:63
  TRACK 36 AUDIO
    TITLE "0:"
    INDEX 01 00:45:69
  TRACK 37 AUDIO
    TITLE "4:cjc044_2535"
    INDEX 01 00:46:47
  TRACK 38 AUDIO
    TITLE "0:"
    INDEX 01 00:48:02
  TRACK 39 AUDIO
    TITLE "5:cjc044_2536"
    INDEX 01 00:48:49
  TRACK 40 AUDIO
    TITLE "0:"
    INDEX 01 00:52:10
  TRACK 41 AUDIO
    TITLE "2:cjc044_2537"
    INDEX 01 00:53:74
  TRACK 42 AUDIO
    TITLE "0:"
    INDEX 01 00:55:18
  TRACK 43 AUDIO
    TITLE "3:cjc044_2538"
    INDEX 01 00:56:04
  TRACK 44 AUDIO
    TITLE "0:"
    INDEX 01 00:57:17
  TRACK 45 AUDIO
    TITLE "4:cjc044_2539"
    INDEX 01 00:58:05
  TRACK 46 AUDIO
    TITLE "0:"
    INDEX 01 00:59:26
  TRACK 47 AUDIO
    TITLE "5:cjc044_2540"
    INDEX 01 00:59:69
  TRACK 48 AUDIO
    TITLE "0:"
    INDEX 01 01:03:06
  TRACK 49 AUDIO
    TITLE "2:cjc044_2541"
    INDEX 01 01:04:70
  TRACK 50 AUDIO
    TITLE "0:"
    INDEX 01 01:06:14
  TRACK 51 AUDIO
    TITLE "3:cjc044_2542"
    INDEX 01 01:06:71
  TRACK 52 AUDIO
    TITLE "0:"
    INDEX 01 01:07:74
  TRACK 53 AUDIO
    TITLE "4:cjc044_2543"
    INDEX 01 01:08:60
  TRACK 54 AUDIO
    TITLE "0:"
    INDEX 01 01:10:04
  TRACK 55 AUDIO
    TITLE "5:cjc044_2544"
    INDEX 01 01:10:61
  TRACK 56 AUDIO
    TITLE "0:"
    INDEX 01 01:15:07
  TRACK 57 AUDIO
    TITLE "2:cjc044_2545"
    INDEX 01 01:16:61
  TRACK 58 AUDIO
    TITLE "0:"
    INDEX 01 01:18:13
  TRACK 59 AUDIO
    TITLE "3:cjc044_2546"
    INDEX 01 01:18:66
  TRACK 60 AUDIO
    TITLE "0:"
    INDEX 01 01:20:24
  TRACK 61 AUDIO
    TITLE "4:cjc044_2547"
    INDEX 01 01:21:06
  TRACK 62 AUDIO
    TITLE "0:"
    INDEX 01 01:22:33
  TRACK 63 AUDIO
    TITLE "5:cjc044_2548"
    INDEX 01 01:23:07
  TRACK 64 AUDIO
    TITLE "0:"
    INDEX 01 01:26:23
  TRACK 65 AUDIO
    TITLE "2:cjc044_2549"
    INDEX 01 01:28:04
  TRACK 66 AUDIO
    TITLE "0:"
    INDEX 01 01:29:07
  TRACK 67 AUDIO
    TITLE "3:cjc044_2550"
    INDEX 01 01:29:64
  TRACK 68 AUDIO
    TITLE "0:"
    INDEX 01 01:30:67
  TRACK 69 AUDIO
    TITLE "4:cjc044_2551"
    INDEX 01 01:31:47
  TRACK 70 AUDIO
    TITLE "0:"
    INDEX 01 01:32:51
  TRACK 71 AUDIO
    TITLE "5:cjc044_2552"
    INDEX 01 01:33:34
  TRACK 72 AUDIO
    TITLE "0:"
    INDEX 01 01:38:02
  TRACK 73 AUDIO
    TITLE "2:cjc044_2553"
    INDEX 01 01:39:61
  TRACK 74 AUDIO
    TITLE "0:"
    INDEX 01 01:40:58
  TRACK 75 AUDIO
    TITLE "3:cjc044_2554"
    INDEX 01 01:41:42
  TRACK 76 AUDIO
    TITLE "0:"
    INDEX 01 01:42:45
  TRACK 77 AUDIO
    TITLE "4:cjc044_2555"
    INDEX 01 01:43:33
  TRACK 78 AUDIO
    TITLE "0:"
    INDEX 01 01:44:32
  TRACK 79 AUDIO
    TITLE "5:cjc044_2556"
    INDEX 01 01:45:04
  TRACK 80 AUDIO
    TITLE "0:"
    INDEX 01 01:47:27
